<svg xmlns="http://www.w3.org/2000/svg" width="1536" height="1152" viewBox="0 0 1536 1152"><defs><style>.a{fill:#c6c6c6;}.b{fill:#fff;}</style></defs><rect class="a" width="1536" height="1152" rx="110.6374"/><path class="b" d="M916.1655,411.6524c56.4168,14.271,110.6339,15.8131,162.4731,14.06,25.66,1.659-47.0554,222.5572-77.136,291.9455-9.62,22.1909-18.4079,10.741-22.0669-1.5622C972.8541,693.9654,892.3906,420.957,916.1655,411.6524Z"/><path class="b" d="M1123.3234,426.2009c45.6734,10.1863,83.01,5.3623,107.1955-2.6288,24.4668-6.5788-34.5694,132.6628-55.4113,150.9449-6.7928,6.1792-8.5465,5.7986-15.2173-1.5622C1142.0546,545.783,1102.9939,427.9381,1123.3234,426.2009Z"/><path class="b" d="M1255.9037,421.7867c31.98,11.4729,60.2595,6.0617,87.1113-6.974,19.58-3.4588-16.89,98.7548-34.7256,137.6286-8.4654,11.3611-12.3628,11.2912-21.09-.7811C1267.7453,512.1552,1241.8336,414.7209,1255.9037,421.7867Z"/><path class="b" d="M1369.61,412.9036c31.7815,9.8521,51.3776,3.6338,78.1367-9.0258,20.5144-9.9046-15.1925,96.6909-31.2726,130.6235-8.4641,11.3592-8.4566,12.07-17.1829,0C1377.5767,488.7321,1354.36,406.7183,1369.61,412.9036Z"/><path class="b" d="M864.3412,397.76c-66.2138-13.2031-99.4331-19.0058-160.55-40.4218-2.1543-.7084-28.5652,85.1112-13.3443,96.8595,13.7562,10.6177,48.9184,7.8113,48.9184,7.8113,22.6115,1.1872,44.4431,6.8014,60.9323,15.625.3382.2427,24.9189,17.77,42.5668,12.3C862.051,483.9877,867.9014,399.8189,864.3412,397.76Z"/><path class="b" d="M660.838,346.4417c-59.45-8.5376-146.5649-34.7813-196.1638-56.2542-9.45-7.8918-27.5967,99.1356-11.3262,112.8726,13.2777,11.21,59.7559.78,59.7559.78,22.7775-4.5065,44.5405,3.3618,60.9279,15.6225,0,0,37.2481,31.9441,55.069,26.6008C651.33,439.399,674.2706,347.6369,660.838,346.4417Z"/><path class="b" d="M408.9673,276.3124c-47.418-1.1016-191.0293-37.9157-230.4311-55.9026-11.0955-2.326-26.5314,98.7705-9.66,111.3737,13.9217,10.4,56.5786.3895,56.5786.3895,19.8605-6.9193,73.7623-.0958,93.1492,14.6461,0,0,40.745,34.3014,58.611,29.1112C401.0475,369.0068,426.8613,276.5706,408.9673,276.3124Z"/><path class="b" d="M943.0416,956.21c-16.2564,9.2258-107.4705-7.3234-120.0406-27.4586S880.89,812.8812,915.54,745.6578c11.0811-21.4986,19.0843-9.4871,21.9131,3.033C942.541,771.2117,959.2981,946.9847,943.0416,956.21Z"/><path class="b" d="M977.0613,959.3726c.6634,20.032,111.7,17.796,112.1565-.3746.5023-19.973-33.1968-94.21-46.79-98.0425C1024.8782,856.008,976.4468,940.82,977.0613,959.3726Z"/><path class="b" d="M1112.875,959.3726c1.3172,20,87.8176,7.7677,87.7437-10.4084-.0843-20.71-33.9913-87.23-49.5714-88.2166C1130.8709,859.47,1111.659,940.9075,1112.875,959.3726Z"/><path class="b" d="M1224.2774,943.1345c1.1985,20.0073,83.3836-1.1863,79.77-19-3.712-18.2962-39.7613-75.3632-52.9734-72.6562C1234.377,854.9,1223.2825,926.5263,1224.2774,943.1345Z"/><path class="b" d="M578.06,808.833c8.55,22.6365,134.5536,84.5824,158.9962,78.0414s47.5813-73.8238,34.8819-88.2606c-11.4775-13.0475-46.2068-18.419-46.2068-18.419-23.4114-5.73-40.3044-16.5427-52.9439-29.2915-.2857-.3027-22.4166-22.5292-40.784-20.5276C612.034,732.5518,569.51,786.1966,578.06,808.833Z"/><path class="b" d="M354.9922,681.9676c5.0808,23.6578,120.65,88.5025,145.7945,85.677s48.7412-59.5983,38.3349-75.7663c-9.4049-14.6123-38.7076-20.89-38.7076-20.89-24.07-8.745-40.6717-19.026-49.1922-33.9956-.2373-.3419-12.6295-27.419-31.09-28.1769C400.0611,607.9913,349.9113,658.31,354.9922,681.9676Z"/><path class="b" d="M93.9237,529.8158c3.9981,29.3262,175.6251,122.9366,197.8854,116.33s47.8821-99.1406,35.6481-114.3947c-10.8722-13.556-50.3125-13.7066-50.3125-13.7066-20.8093,3.0472-67.8006-10.8658-84.0574-29.0012,0,0-22.0328-26.9531-40.4927-24.637C131.1635,467.0955,89.9256,500.49,93.9237,529.8158Z"/><path class="b" d="M56.9269,226.5258l-26.6523-8.467s-12.2511-2.2792-4.8335-16.62c21.5177-41.601,73.5376-83.3107,155.67-61.6153,362.7174,91.74,863.3248,284.066,1310.6868,183.5109,6.6758-1.78,11.3489-.1483,12.9066,5.044l8.2394,28.9555c-74.1075,33.4361-386.635,45.8969-630.6,0C670.23,319.6148,435.6243,249.2218,172.507,174.8345,117.2648,165.2665,79.7949,184.1911,56.9269,226.5258Z"/></svg>