<svg xmlns="http://www.w3.org/2000/svg" width="512" height="512" viewBox="0 0 512 512"><defs><style>.a,.b{fill:#fff;}.a,.c{stroke:#1d1d1b;stroke-miterlimit:10;stroke-width:2px;}.c{fill:none;}</style></defs><path class="a" d="M305.3885,198.3456c18.8056,4.757,36.878,5.2711,54.1577,4.6868,8.5533.553-15.6851,74.1858-25.712,97.3152-3.2067,7.3969-6.136,3.58-7.3556-.5208C324.2847,292.45,297.4635,201.4472,305.3885,198.3456Z"/><path class="a" d="M374.4411,203.1952c15.2245,3.3954,27.67,1.7874,35.7319-.8763,8.1556-2.1929-11.5232,44.2209-18.4705,50.315-2.2642,2.06-2.8488,1.9328-5.0724-.5208C380.6849,243.0558,367.6646,203.7742,374.4411,203.1952Z"/><path class="a" d="M418.6346,201.7238c10.66,3.8242,20.0865,2.02,29.0371-2.3247,6.5265-1.153-5.63,32.9182-11.5752,45.8762-2.8218,3.787-4.121,3.7637-7.03-.26C422.5818,231.8466,413.9445,199.3685,418.6346,201.7238Z"/><path class="a" d="M456.5367,198.7627c10.5938,3.2841,17.1259,1.2113,26.0456-3.0086,6.8381-3.3015-5.0642,32.23-10.4242,43.5412-2.8214,3.7864-2.8189,4.0234-5.7277,0C459.1922,224.0389,451.4533,196.701,456.5367,198.7627Z"/><path class="a" d="M288.1137,193.7149c-22.0712-4.4011-33.1443-6.3353-53.5168-13.4739-.7181-.2362-9.5217,28.37-4.4481,32.2864,4.5854,3.5393,16.3061,2.6038,16.3061,2.6038a49.7445,49.7445,0,0,1,20.3108,5.2084c.1127.0808,8.3063,5.9232,14.1889,4.1C287.35,222.4574,289.3005,194.4011,288.1137,193.7149Z"/><path class="a" d="M220.2793,176.6087c-19.8168-2.8458-48.8549-11.5937-65.3879-18.7514-3.15-2.6306-9.1989,33.0452-3.7754,37.6242,4.4259,3.7368,19.9186.26,19.9186.26,7.5925-1.5022,14.8469,1.1206,20.3093,5.2075,0,0,12.4161,10.648,18.3564,8.8669C217.11,207.5945,224.7569,177.0071,220.2793,176.6087Z"/><path class="a" d="M136.3224,153.2323c-15.806-.3672-63.6764-12.6385-76.81-18.6342-3.6985-.7753-8.8438,32.9235-3.22,37.1246,4.6406,3.4666,18.8595.13,18.8595.13,6.62-2.3064,24.5875-.0319,31.05,4.882,0,0,13.5816,11.4339,19.537,9.7038C133.6825,184.13,142.2871,153.3184,136.3224,153.2323Z"/><path class="a" d="M314.3472,379.865c-5.4188,3.0752-35.8235-2.4412-40.0135-9.1529S293.63,332.0886,305.18,309.6808c3.6937-7.1662,6.3614-3.1624,7.3043,1.011C314.18,318.1987,319.766,376.79,314.3472,379.865Z"/><path class="a" d="M325.6871,380.919c.2211,6.6774,37.2332,5.932,37.3855-.1248.1674-6.6577-11.0656-31.4034-15.5968-32.6808C341.6261,346.4642,325.4823,374.7348,325.6871,380.919Z"/><path class="a" d="M370.9583,380.919c.4391,6.6666,29.2726,2.5893,29.2479-3.4694-.0281-6.9034-11.33-29.0766-16.5238-29.4055C376.957,347.6181,370.553,374.764,370.9583,380.919Z"/><path class="a" d="M408.0925,375.5064c.4,6.669,27.7945-.3955,26.59-6.3333-1.2373-6.0987-13.2537-25.121-17.6578-24.2187C411.459,346.0947,407.7608,369.97,408.0925,375.5064Z"/><path class="a" d="M192.6866,330.7392c2.85,7.5455,44.8512,28.1941,52.9988,26.0138s15.86-24.6079,11.6273-29.42c-3.8259-4.3492-15.4023-6.14-15.4023-6.14a36.3365,36.3365,0,0,1-17.648-9.7638c-.0952-.1009-7.4722-7.51-13.5946-6.8426C204.0113,305.3121,189.8367,323.1937,192.6866,330.7392Z"/><path class="a" d="M118.3307,288.4507c1.6936,7.8859,40.2167,29.5008,48.5982,28.559s16.2471-19.8661,12.7783-25.2554c-3.135-4.8708-12.9025-6.9635-12.9025-6.9635-8.0232-2.915-13.5573-6.342-16.3974-11.3319-.0791-.114-4.21-9.14-10.3634-9.3923C133.3537,263.792,116.6371,280.5648,118.3307,288.4507Z"/><path class="a" d="M31.3079,237.7334C32.6406,247.5089,89.85,278.7123,97.27,276.51s15.9607-33.0469,11.8827-38.1316c-3.6241-4.5187-16.7708-4.5689-16.7708-4.5689-6.9365,1.0158-22.6-3.6219-28.0192-9.667,0,0-7.3442-8.9844-13.4975-8.2123C43.7212,216.8267,29.9752,227.958,31.3079,237.7334Z"/><path class="b" d="M18.9756,136.6368l-8.8841-2.8223s-4.0837-.76-1.6111-5.54c7.1725-13.867,24.5125-27.77,51.89-20.5385,120.9058,30.58,287.7749,94.6887,436.8956,61.17,2.2252-.5934,3.7829-.0495,4.3022,1.6813l2.7464,9.6518c-24.7025,11.1454-128.8783,15.299-210.2,0C223.41,167.6664,145.2081,144.2021,57.5023,119.4064,39.0883,116.217,26.5983,122.5252,18.9756,136.6368Z"/><path class="c" d="M18.9756,136.6368s5.9861-18.2263,30.2035-18.2263,202.9379,65.3758,313.3614,70.2068c95.7486,4.189,121.0576-2.5064,141.7742-8.3778"/></svg>