<svg xmlns="http://www.w3.org/2000/svg" viewBox="0 0 2014.8901 1506.1877"><defs><style>.e8a8e915-a2f8-4fa6-bfc0-b99f9c7d1cdd{fill:#fff;}</style></defs><path d="M36.374,1133.3376c-1.3648-11.1135-2.5848-22.0073-4.0584-32.8668-4.4347-32.68.9-64.55,8.9484-95.9481,6.6411-25.9078,16.7895-50.5571,32.7541-72.3995,6.39-8.7426,14.0988-14.8239,25.8921-13.7427a106.3347,106.3347,0,0,0,17.9843.0152c7.2492-.5717,13.5356,1.8515,17.7073,7.1123,7.9857,10.071,18.9869,18.4145,19.33,33.266.2215,9.5938,1.7709,19.1646,2.873,28.7286,1.1675,10.1311,2.51,20.2421,3.7765,30.3618l2.1677,0a49.03,49.03,0,0,0,.5888-6.049c-.9549-41.7258,6.8854-82.2368,17.6829-122.2007,6.5025-24.0673,14.2338-47.8205,21.9915-71.5254,6.3757-19.482,18.274-36.2281,28.8464-53.5022a28.041,28.041,0,0,1,21.3935-13.363,117.8277,117.8277,0,0,1,35.5366,2.189c16.0606,3.3463,23.497,14.5244,31.7489,26.1456,6.9815,9.8319,13.5882,19.8751,16.9695,31.4818,7.6339,26.2047,14.8775,52.5157,17.99,79.7683,2.9835,26.1217,4.8488,52.4769,9.7473,78.2464,5.7682,30.3451,13.766,60.3055,21.7647,90.1736,5.3284,19.8968,12.4727,39.302,18.5651,59.0013,3.539,11.4432,6.5519,23.0482,9.9238,34.5447.794,2.7071,2.0811,5.2694,3.59,9.0112,3.9938-14.6348,10.7167-26.3541,19.0735-36.9873,7.6211-9.6973,17.7752-15.3787,30.557-15.8251,7.6267-.2664,15.22-1.3857,22.8461-1.7957,12.1706-.6543,23.7963,2.12,35.1973,6.113,7.2236,2.53,14.74,4.3824,21.6839,7.5157,11.47,5.1755,22.5834,11.1406,34.6,17.15.8432-1.2005,2.08-2.9941,3.35-4.7633,4.6461-6.4706,8.98-13.2055,14.0973-19.28a21.0751,21.0751,0,0,1,9.7167-6.6348c28.1344-7.7786,56.2181-10.327,84.0671,1.7342,13.0409,5.6478,26.384,10.5977,40.3346,16.1608,1.0189-5.1121,2.2415-9.2789,2.6277-13.5218,1.7067-18.75,18.7091-33.8284,38.9548-34.66a104.66,104.66,0,0,1,50.29,10.5512c13.7976,6.6117,27.313,13.626,42.7615,16.1382,6.3735,1.0364,12.3534,4.4945,18.3827,6.8015.6454-.8179,1.3639-1.3089,1.3368-1.7542-1.0816-17.7079,9.6964-29.13,21.56-39.6152,7.6948-6.8007,16.6507-12.1736,24.3515-18.9685,10.86-9.5821,23.46-8.79,35.8866-6.4025,30.5031,5.86,59.7668,15.9707,88.2105,28.3337,7.2795,3.1641,13.9546,7.7354,20.8576,11.7458,11.9289,6.9306,14.6592,7.5662,29.4356,6.5,1.8995-6.8251,1.4509-12.658-1.92-24.957-25.8812-.29-46.5918-18.5976-57.1213-35.1255-6.9847,1.1457-14.1829,2.0707-21.2689,3.5378-19.464,4.03-39.2068,3.5423-58.7509,2.3651-16.0179-.9651-31.1266-7.1769-44.905-15.4076-14.03-8.3811-27.0463-18.2452-34.9477-33.397-18.029,3.9952-35.4728,2.438-52.4029-3.3116-6.8406-2.3232-13.2675-6.145-19.4806-9.9423a22.4981,22.4981,0,0,0-14.1433-3.3819c-8.9642.6424-17.9813.5138-26.9726.8185-21.6.732-41.58-5.9329-60.3838-15.2573-20.6651-10.2472-34.1287-28.1844-44.5237-48.3669-8.0843-15.6957-11.2957-32.5009-11.5839-50.1355-.4028-24.6316-1.7593-49.2588,2.0786-73.7579.8145-5.2,1.702-10.3881,2.74-16.7039-17.8806,5.9392-35.5033,4.4294-52.8469,3.1548-14.73-1.0828-29.8317-2.3341-42.848-11.2919-4.8381-3.3294-11-4.6931-15.9965-7.843-10.0521-6.3366-15.9036-15.3539-17.4441-27.58-1.5747-12.4962-4.5058-24.8216-6.9836-37.9681-1.5633.22-3.6872.5769-5.8247.81-7.91.8636-15.8061,2.0195-23.7408,2.4493-13.2779.7194-26.6339,1.8945-39.859,1.1462a193.2471,193.2471,0,0,1-38.3325-5.8263c-20.3026-5.3739-32.3526-19.2266-34.7571-40.3881-1.4993-13.1952-2.1246-26.49-3.1661-40.0514a332.8171,332.8171,0,0,1-63.8979,4.3706,235.7516,235.7516,0,0,1-34.6988-3.4735c-23.1158-4.1139-32.9112-16.2661-35.7229-38.0025-1.9954-15.425-4.18-30.8254-6.36-46.8264a26.9475,26.9475,0,0,0-4.6,3.1444,185.384,185.384,0,0,0-36.1651,50.9488c-7.4059,15.2351-15.7791,30.0492-24.5141,44.5743a127.8654,127.8654,0,0,0-15.7425,39.7406c-3.3313,15.885-10.3645,30.1876-16.487,44.8707C141.84,714.9,135.3887,725.87,129.9218,737.27c-2.8044,5.8482-6.955,9.5829-13.324,10.8931-11.0339,2.27-21.6351,7.5591-33.21,6.0288-12.7949-1.6918-25.4895-4.1616-38.2-6.4483a7.2529,7.2529,0,0,1-4.2669-2.3742c-8.2069-11.1665-17.438-21.5057-22.913-34.6792C10.6215,692.918,7.4432,674.5749,5.4058,655.5517,2.2784,626.3509,1.64,597.0878.1819,567.8267c-1.0057-20.1842,2.3767-39.81,4.8061-59.6318C9.1092,474.57,18.64,442.4493,30.6749,410.9357c4.0326-10.56,7.2477-21.4323,11.3011-31.9833C54.26,346.9758,72.0129,318.19,93.5946,291.6916c12.6975-8.3842,17.016-21.3871,19.3016-35.409a40.8529,40.8529,0,0,0,.2194-9.7839c-1.4484-17.8329-1.2429-35.2888,8.9815-51.1244,1.5136-2.344,2.0466-5.57,2.2643-8.4467.3763-4.9735.2091-9.993.1655-14.9924-.1363-15.6143,13.866-31.8736,24.5671-33.96,2.1691-7.7164,3.9261-15.4656,6.53-22.9185,5.3512-15.3145,15.9139-25.4322,32.0685-28.2555,8.8535-1.5474,13.0737-6.2268,17.2814-14.0011,11.7546-21.7183,30.3667-33.8643,55.6926-34.32,3.3193-.06,6.6407-.0082,9.7977-.0082,10.5535-23.8474,29.1767-35.718,54.12-37.7277C338.843-.4044,353.428-1.024,366.9012,5.1228c9.5691,4.3658,18.623,9.8613,28.3614,15.0969,15.3729-3.9157,31.7814-5.55,48.6463-1.3643,25.9636,6.4437,48.703,19.4981,70.6226,34.0778,11.0471,7.348,21.2148,16.0214,31.75,24.1344,15.7626,12.1385,26.5751,27.7659,32.6891,47.3732,6.7288,1.2314,13.6242,2.1525,20.3427,3.797,12.2708,3.0036,24.8976,5.2824,36.548,9.9362,22.1259,8.8381,40.69,23.2025,52.1881,44.2943,6.6345,12.1706,14.3921,17.7654,28.4879,18.06,18.6658.3895,36.9009,5.7955,54.3371,12.0658,23.6893,8.5191,44.8855,21.7579,61.187,41.5671a18.0945,18.0945,0,0,0,13.5252,7.0823c19.8645,1.6273,38.0149,9.4764,56.2809,16.63,8.9774,3.5158,17.6546,7.8387,26.3236,12.09,8.4445,4.1416,16.3822,8.9986,20.2916,18.2748,1.5333,3.6384,4.24,4.2961,8.1092,3.9a205.1805,205.1805,0,0,1,67.4,4.4417c9.0566,2.0853,18.4183,2.8137,27.6063,4.3671,13.449,2.2738,26.9237,4.4616,40.2669,7.2612,4.77,1.0009,9.3265,3.404,13.7434,5.6359,11.8433,5.9844,23.9025,11.6555,35.2245,18.5248a80.685,80.685,0,0,1,26.1371,25.6478c5.2015,8.1032,10.6989,16.0165,15.9629,23.8624,1.1635-.2558,1.9681-.1973,2.4256-.5675,12.5615-10.1684,27.001-13.15,42.9439-13.05a271.2143,271.2143,0,0,1,78.6778,12.3045c19.204,5.943,37.9664,13.8335,55.0082,25.4387,10.0621,6.852,21.7034,11.5254,32.9443,16.4743,19.7837,8.71,39.7895,16.9158,59.7433,25.2345a28.4,28.4,0,0,0,8.5987,2.4761c15.863,1.1378,30.64,6.1643,44.9255,12.6267a70.1509,70.1509,0,0,0,29.0911,6.0017c27.9536.0065,54.4669,7.8665,81.4336,13.3912,20.01,4.0995,38.9271,11.3747,57.1957,20.1574,17.0623,8.2029,33.3363,18.0452,50.3859,26.2772,15.5722,7.5186,30.616,15.84,45.7124,24.2429,18.1832,10.1212,37.8748,17.7317,57.3765,25.2242,17.3111,6.6509,35.2467,11.68,52.9326,17.3453a23.0743,23.0743,0,0,0,5.8851.9416,139.408,139.408,0,0,1,40.1217,7.4243c4.9159,1.7349,10.4233,1.7674,15.6445,2.6706,6.068,1.0495,9.18,4.9218,10.0736,10.8338,3.0322,20.0612,6.391,40.08,8.9962,60.1964,1.7083,13.1931,2.3866,26.5226,3.4025,39.8a72.1619,72.1619,0,0,1-.0115,9.99c-.38,6.0549-2.6378,10.6658-9.1145,12.6189-19.696,5.9391-38.2474,16.4983-59.0465,17.7316-24.53,1.4543-49.2441,3.5946-73.7527-.868a85.4552,85.4552,0,0,1-32.9856-13.6922c-7.9509-5.4183-15.5444-11.3613-23.307-17.0569-2.3745-1.7422-4.7835-3.437-7.0776-5.0822-15.3647,12.6094-33.0342,17.3582-52.0595,18.1135-3.9937.1586-8-.0131-11.9993.04-12.6636.17-25.3069.3053-37.68-3.1793a66.4587,66.4587,0,0,0-8.5435-1.3148c-4.9031,6.53-9.212,12.8513-14.1056,18.6813-16.9959,20.25-40.2182,26.9012-65.2766,29.9475-25.8524,3.143-45.1973-10.5092-64.76-23.9228-1.9127-1.3115-3.4516-3.1724-5.377-4.46-9.26-6.1914-13.7452-15.0413-14.9042-25.8944-1.9869-18.6062-5.7389-36.788-13.6407-54.3759-8.8633.6-18.0616,2.0951-27.1647,1.6491-16.2705-.7975-32.6462-1.804-48.677-4.5069-16.8718-2.8445-31.8361-10.7111-45.0312-21.9851a55.1147,55.1147,0,0,0-35.3637-13.66c-26.2364-.9055-52.7824-.9314-78.446-7.2234-17.5685-4.3073-33.7753-11.9764-43.692-28.7395-2.8661-4.8448-6.7215-9.0965-10.0159-13.6971-8.9763-12.536-12.9-26.8334-14.5556-41.9321-1.0084-9.1986-2.1712-18.38-3.408-28.775-7.2205,4.4374-13.7776,7.6249-19.3117,12.083-6.8256,5.4983-14.3234,8.512-22.8258,8.6724-13.648.2575-27.3242.3894-40.9542-.2082-10.3854-.4553-18.9138-6.1375-26.6237-12.59a15.403,15.403,0,0,0-12.6018-3.8388c-10.9221,1.0329-22.0626,2.099-32.9015,1.02-11.1309-1.1076-22.0128-4.7391-32.9961-7.2984-3.8849-.9053-7.7281-1.996-11.6248-2.8433a32.0269,32.0269,0,0,1-16.9571-9.7644c-5.9123-6.2277-13-11.3256-19.0951-17.3984-4.1676-4.1523-8.518-8.6451-11.0371-13.8349-9.6153-19.81-17.7024-40.2622-20.5423-62.3171-1.1445-8.889-1.4553-17.8846-2.1851-26.8285-.1329-1.6294-.4574-3.2431-.7993-5.5912-2.0461,0-3.9545-.0017-5.8628,0-16.9723.0168-33.9514.3407-50.9149-.038-15.7607-.3518-28.9959-6.2593-38.5074-19.4629a129.8721,129.8721,0,0,0-11.3841-13.7887c-5.9544-6.2339-7.7843-13.5725-7.3253-21.8636.1052-1.9013-.43-3.8378-.7823-6.648-3.0078.34-5.7562.0545-7.9857.9968-16.512,6.9791-33.45,7.7716-50.8509,4.3741-6.5124-1.2716-13.2353-1.52-19.7036-2.9526-17.9278-3.97-32.5567-13.0247-42.4227-28.9279-6.6184-10.6684-13.211-21.3529-20.4325-33.0282-4.0492.8512-9.7271,2.7653-15.5009,3.1215-16.279,1.0045-32.6847,2.6763-48.8746,1.5972-14.5363-.9689-28.1035-7.1381-41-14.353-9.502-5.3156-15.6655-13.0246-19.2146-24.3826-6.2265,3.8377-11.9145,6.6454-16.8033,10.4737a403.2309,403.2309,0,0,0-68.223,68.4527c-22.4359,28.484-39.0577,60.4015-53.94,93.0481-7.0515,15.4681-9.84,33.0878-13.0054,50.0232-1.38,7.3855.53,14.9968,8.3153,20.6688,21.3673,15.5678,44.6124,24.8806,71.1776,25.3973,2,.0389,4.0141-.1083,5.997.0847,8.5269.83,15.2315,3.4544,19.904,12.0315,11.5358,21.1754,29.9689,34.9349,51.3541,45.6,16.3588,8.1584,31.96,17.8416,50.1016,21.7986,5.5169,1.2032,11.0514,2.452,16.6441,3.1451,5.46.6767,9.0578,3.2169,11.7366,8.0181,2.9082,5.2123,6.412,10.1064,9.8309,15.0176a81.2451,81.2451,0,0,0,39.591,30.6c9.6612,3.55,19.1608,7.5839,28.5658,11.7758,12.4071,5.53,25.6774,6.8548,38.8781,8.3794,24.6326,2.8447,48.3517,9.5624,71.18,18.6586,12.1448,4.8393,23.4483,12.54,33.9173,20.5394,5.7728,4.4107,10.1832,11.5982,13.2193,18.4192,10.823,24.3148,27.7657,43.5047,47.782,60.43a51.9646,51.9646,0,0,1,7.3842,8.0782c12.6884,16.4815,29.84,24.5852,50.0837,26.9837.9887.1171,2.0917-.1969,2.9835.126,16.185,5.859,32.0347,1.1967,47.9506-1.4408,1.6308-.27,3.2652-.5308,4.9064-.7237,13.5224-1.5907,27.1687-2.4883,40.5418-4.9023,19.8083-3.5757,39.2176-1.6235,58.354,3.0921,12.1949,3.0048,24.88,6.1657,35.678,12.2271,19.5327,10.9649,39.6159,22.2105,49.2278,44.4764,1.2885,2.9848,2.5972,6.2271,2.7265,9.398.4714,11.5705,1.5685,23.0611-2.4716,34.5656-2.0907,5.9536-1.0743,12.9984-1.4767,19.8041,6.9947-.4618,12.812-1.2685,18.6093-1.1447a83.273,83.273,0,0,1,39.8364,10.5752c7.15,4.021,15.1849,6.5178,22.9238,9.4289,9.6483,3.6294,19.6423,6.4379,29.0369,10.6137,8.063,3.5838,15.4924,8.5925,23.6213,13.2092a12.453,12.453,0,0,0,2.0511-2.5083c7.5786-15.1194,18.998-27.2325,30.5619-39.2385a7.5255,7.5255,0,0,1,.6387-.7663c10.4254-8.1761,20.29-17.2386,31.422-24.304,17.566-11.1492,36.8746-12.2465,56.6426-6.0478,1.89.5925,3.851.951,5.7606,1.4853,4.9063,1.372,8.825,3.5353,11.4311,8.56,6.2667,12.08,13.8336,23.5081,19.7409,35.7471,7.64,15.8283,14.309,32.134,21.0911,48.3614,1.638,3.9191,2.1622,8.3211,3.0517,12.5319,1.2161,5.7581,2.2921,11.546,5.4083,17.6313,2.85-4.625,5.9347-9.1243,8.4912-13.9061,3.3806-6.3231,8.4756-9.8935,15.3276-11.7331,14.693-3.9441,29.6236-4.4914,44.6054-3.1757,12.49,1.0968,22.1119,8.5411,31.7031,15.8246,11.6291,8.8308,23.48,17.3352,37.606,23.8412,1.7152-3.1188,3.19-5.9529,4.8035-8.7063,4.83-8.244,11.46-13.59,21.5323-13.9123,10.3158-.3306,20.6191-1.0368,30.9293-1.5481,9.6051-.4765,18.138,2.5327,26.67,6.8846,10.5792,5.3965,21.7823,9.5706,32.1213,14.0171,4.356-5.375,7.3554-10.2182,11.4509-13.8125a55.43,55.43,0,0,1,14.2962-8.9045c4.1294-1.7985,8.932-2.1285,13.4725-2.8915,12.4339-2.0891,24.2639-1.3962,35.65,5.2883,11.1609,6.552,22.9841,11.9786,34.5473,17.8385a13.0347,13.0347,0,0,0,4.69,1.6051c16.4831,1.2177,32.59,5.8457,49.3823,4.6155,12.606-.9235,25.3094-.8974,37.96-.7027,10.1886.1567,19.6814-2.6271,29.3885-4.9749,6.3419-1.5337,13.0081-1.7671,19.5429-2.4481,3.8792-.4044,6.14,1.5527,7.3889,5.2259,4.7217,13.8877,4.6939,28.1886,3.4343,42.4943-.4546,5.1609-3.6826,9.1494-9.0479,10.76-11.1235,3.34-22.0663,6.6859-33.9032,7.792-16.1491,1.5087-32.0578,5.5291-48.0939,8.3342-10.7826,1.886-21.5836,3.6967-32.42,5.2354-9.2247,1.31-18.4987,2.31-27.7741,3.2074-6.561.6347-13.1578.9351-19.7446,1.2556-3.3259.1619-6.7333-.3938-9.9867.1184-11.8593,1.8671-23.8517,1.2109-35.6894,2.1861-7.944.6544-16.1005,4.2047-23.2284,8.1469-14.7846,8.1769-30.482,11.2075-47.0218,10.951-12.2781-.19-24.32-1.1363-36.2993-5.1285-6.8056-2.2676-15.5117-4.6731-22.01,2.7992a4.1084,4.1084,0,0,1-2.8007.7588c-11.8826-.0323-21.38,6.546-31.6623,11.0879a61.1625,61.1625,0,0,1-16.0371,4.6c-11.8547,1.6571-23.7893,2.89-35.73,3.7411-13.3919.9548-26.3336-1.3867-39.2777-5.2114-10.5749-3.1245-21.2437-3.02-31.7712,3.0212-14.0858,8.0832-28.4822,16.2209-43.7209,21.54-16.5393,5.7729-34.191,8.37-51.3744,12.2787-4.86,1.1054-9.8519,1.6765-14.6564,2.9661-21.9559,5.8934-44.2455,9.4333-67.0013,9.0214-16.959-.3069-33.9925-2.6772-50.837-1.6274-21.3269,1.3294-41.5849-4.64-62.423-6.3227-14.1472-1.1424-28.0708-4.835-42.1714-6.848-9.9809-1.4252-19.7813-.9927-28.6418,5.2689a36.634,36.634,0,0,1-11.8133,5.0185c-9.9721,2.5972-20.0148,5.0225-30.1451,6.8843-9.1125,1.6746-18.3883,2.4451-27.5765,3.7263-11.1817,1.5591-22.3931,2.9732-33.5068,4.9319-11.899,2.0973-23.6371,2.7025-35.6669.5982-7.817-1.3675-15.9255-1.5041-23.8984-1.45a152.843,152.843,0,0,1-42.4273-5.7952c-8.9878-2.5142-17.3057-2.3914-25.9477,2.2062-14.0969,7.5-28.9117,13.7355-44.6316,16.8482a177.7411,177.7411,0,0,1-30.6959,3.1337c-16.9845.3534-33.9914-.1514-50.984-.52a31.3829,31.3829,0,0,0-14.196,3.2806c-13.2572,5.9942-26.25,12.4663-40.7,16.0163-16.1627,3.971-32.07,8.6793-48.7688,9.8444-18.2906,1.276-36.5581,2.2169-54.6806-1.8094a40.7641,40.7641,0,0,0-8.8924-1.1569c-10.8847.0412-21.18-1.9973-30.0246-7.8936-25.4875,13.8325-52.1664,20.6789-80.6937,20.48-6.9749-.0484-13.951.8972-20.9341,1.0546-21.9633.4949-43.1325-2.8571-62.7262-13.4825-1.16-.6291-2.4316-1.0522-3.9638-1.7041-25.785,17.9347-55.0235,25.1822-86.0119,27.6024-19.6476,1.5344-39.1784,2.6979-58.822.3213-10.0414-1.2149-19.6495-3.4737-28.4357-8.669a61.0805,61.0805,0,0,0-6.2353-3.1624c-6.9633-3.1032-13.0422-4.3286-21.4762-1.4625-17.9456,6.0984-37.0475,7.81-56.2005,6.9857-3.9216-.1689-8.1978-.1845-11.7769,1.155-16.8667,6.3128-34.1073,5.0646-51.3171,2.8781a14.43,14.43,0,0,0-10.2431,1.9677c-16.8424,10.3523-34.7182,10.1641-52.96,4.7809-9.2314-2.7243-18.3357-5.8787-27.5031-8.8212-5.2949-1.7-7.5682-5.4147-9.0673-10.7683-5.4664-19.5214-5.8417-39.408-5.4791-59.4162a126.5029,126.5029,0,0,1,6.81-38.16c3.3146-9.91,10.2533-17.0528,16.4067-24.7792C27.922,1136.6938,32.34,1135.5739,36.374,1133.3376ZM291.479,485.975c3.1-3.6,7.5672-7.0591,9.7314-11.6132,7.4043-15.5808,15.2367-31.138,20.6206-47.458,8.5724-25.9853,18.122-51.5122,30.7386-75.7316,15.0047-28.8037,35.4235-53.7986,56.5086-78.3922,22.0576-25.7277,46.3448-48.5476,75.1519-66.573,9.561-5.9826,18.42-13.1332,27.3351-20.0886,9.0185-7.036,17.7-14.5037,26.5488-21.7578,3.7549-3.0782,7.2166-6.7122,5.6007-11.8082-1.8746-5.9111-3.727-12.445-7.6119-16.9728-7.743-9.0242-16.8874-16.8429-25.4194-25.1939-20.9747-20.53-47.4243-31.5682-73.88-42.5665-4.4485-1.8493-8.94-1.998-13.4142.6762-18.83,11.2533-38.8131,20.9085-56.4033,33.8314-34.3533,25.2382-59.2807,59.2-79.6668,96.1224-18.0654,32.72-30.8126,67.7245-39.0278,104.3678-4.105,18.31-7.0587,36.5572-5.784,55.34.4734,6.975.9081,13.9543,1.5182,20.9179,1.8579,21.2049,2.8365,42.5443,5.94,63.5682C253.83,468.8158,265.8692,479.0457,291.479,485.975Zm1023.1043,564.1211c-4.7888-8.5523-9.0352-16.7663-13.9375-24.5678a24.5736,24.5736,0,0,0-7.9571-7.3127c-16.4321-10.0661-33.187-19.6112-49.5132-29.8422-12.18-7.6328-26.3275-9.0108-39.5077-13.4108-2.6241-.876-7.2057-.0283-9.0934,1.8372a90.3787,90.3787,0,0,0-12.9736,16.1674c-19.87,31.7219-30.6006,65.48-23.0874,103.4827,2.9294,14.8179,5.9714,29.2492,15.623,41.5519,4.5993,5.8624,8.1275,12.366,17.2731,10.5949,1.4548-.2819,3.1741.763,4.7634,1.2214,10.19,2.9389,20.2194,6.7158,30.5928,8.6825,40.8288,7.7411,81.9909,8.6129,123.2756,4.3657,16.2155-1.6682,32.4472-3.332,48.5685-5.7,7.8045-1.1462,15.4475-3.6651,23.03-5.9981,16.4834-5.0715,30.1012-15.3635,44.2956-24.6332,3.9475-2.5781,4.59-5.7334,4.7847-10.0243.984-21.6432-4.05-42.4495-9.7813-62.8751-7.72-27.5125-17.1089-54.5617-26.0125-81.7342a144.3488,144.3488,0,0,0-8.5386-21.2111c-4.7076-9.1333-12.8336-10.9575-21.8221-5.7521-1.7243.9986-3.3559,2.1626-4.9986,3.2956-27.0575,18.6643-45.4983,44.4592-60.1306,73.2769-2.044,4.0259-2.3255,8.9377-3.4882,13.4226-1.3062,5.0408-2.6859,10.0626-4.0527,15.1626ZM322.1229,1225.53c10.2737,1.0759,20.3394.8906,30.5366-2.1669a32.7388,32.7388,0,0,0,15.2947-9.6554c4.0344-4.2681,4.2729-8.1361,1.91-13.4535-4.99-11.2291-10.17-22.5236-13.5411-34.2874-5.0314-17.5577-8.945-35.4655-12.6523-53.3656-5.3291-25.7313-9.8554-51.5642-17.0139-76.9647a452.37,452.37,0,0,1-16.23-105.3723c-.9342-23.9423-2.41-47.8951-4.7213-71.7388-1.1471-11.8321-4.3993-23.5116-7.3624-35.0905a44.78,44.78,0,0,0-6.4443-13.3947c-4.934-7.3571-13.1432-9.1692-21.0972-9.259-6.51-.0734-8.829,6.4386-11.2861,11.4189-2.9341,5.9476-5.9256,12.02-7.677,18.3732-11.13,40.3783-23.76,80.3244-31.769,121.58-6.0621,31.2262-7.2289,62.7507-9.5053,94.25a60.8141,60.8141,0,0,0,.5458,10.9526c1.4931,13.5434,2.8691,27.1068,4.7507,40.5983,2.0173,14.4631,2.8041,29.4247,7.2773,43.1416,6.6524,20.399,16.0269,39.9145,24.39,59.7438.7263,1.7221,2.4111,3.1376,3.8828,4.4317,8.9792,7.8959,19.7825,12.842,30.21,18.3674a15.1875,15.1875,0,0,0,6.599,1.8088C299.518,1225.627,310.8213,1225.53,322.1229,1225.53ZM1502.79,537.4265c0,10.4233-.5384,20.1115.1057,29.7206,1.6251,24.2467,3.757,48.46,5.7362,72.682,1.0567,12.9347,2.0047,25.8839,3.3962,38.784,1.1761,10.9014,2.8248,21.7558,4.4365,32.6054,2.1144,14.2328,4.4978,28.3385,16.39,38.5a74.9188,74.9188,0,0,0,20.2392,12.3012c11.0109,4.6038,21.2044,3.58,30.3566-2.5792,21.9417-14.7677,35.702-34.5771,34.76-62.3558-.1436-4.2356-.02-8.48-.02-13.3186h18.8852c.4658,5.3616,1.2174,10.5591,1.2706,15.7635.04,3.8592,1.6307,6.164,4.8289,7.9419a177.7551,177.7551,0,0,0,43.6007,16.93,20.541,20.541,0,0,0,6.94.3465c23.4487-2.411,43.5754-20.6435,48.404-43.912,1.96-9.444,3.62-18.9507,5.38-28.4356,2.1119-11.3812,4.1863-22.7695,6.3224-34.4017-19.1471-14.4721-38.71-26.9268-60.0666-36.4582-9.4185-4.2035-19.1566-7.7628-28.3154-12.4617-21.4419-11.0008-45.0954-16.0182-67.12-25.3988a37.0253,37.0253,0,0,0-8.72-2.1325c-17.7525-2.8-35.4669-5.9516-53.3034-8.0665C1525.2006,532.1656,1513.6782,530.546,1502.79,537.4265Zm-300.7139-88.5094c0,2.5279.0728,4.824-.0118,7.1144-.5679,15.3885,3.33,30.4457,3.8608,45.6283.8326,23.8056,5.3521,46.8491,10.5734,69.8576a40.7372,40.7372,0,0,0,5.8771,13.5918c3.7132,5.4637,8.3547,10.3342,12.8668,15.2106,17.4953,18.9075,38.9556,26.2576,64.6466,23.4431,17.1492-1.8788,34.4949-2.3084,51.7638-2.535,4.9712-.0653,10.5585,1.8929,14.8571,4.5507a275.8133,275.8133,0,0,1,28.529,20.02c12.9715,10.5012,27.9206,13.3437,43.864,13.1716a12.434,12.434,0,0,0,7.2934-2.37c10.3475-8.5181,20.4133-17.3363,20.844-32.3558.0654-2.2833,1.3643-4.5291,1.4432-6.8147.1684-4.8846,1.0274-10.1289-.3609-14.6183-6.5936-21.3214-11.19-43.0736-15.8618-64.8568-1.94-9.0472-3.9524-19.0615-14.5648-23.21a5.0528,5.0528,0,0,1-2.56-2.9181c-1.2433-4.0915-4.5066-4.4149-7.8853-4.711a72.7327,72.7327,0,0,1-30.167-9.7449c-12.3834-7.1336-24.4781-14.7689-36.8672-21.8925-6.0128-3.4573-12.1216-7.2555-18.6916-9.1408-20.2138-5.8008-39.2064-14.5845-58.6634-22.29C1255.5857,433.2463,1228.4924,432.9774,1202.0765,448.9171ZM191.6309,323.262c-7.5429-1.6124-14.5919-3.1894-21.68-4.5666a6.5855,6.5855,0,0,0-3.8542.6583c-11.3456,5.5636-23.5516,10.3569-31.1279,20.9723-12.17,17.052-24.3706,34.2149-34.789,52.3476-10.4117,18.1211-18.9489,37.352-27.7765,56.3433C56.9271,482.3132,49.3557,517.75,45.9046,554.06c-2.4937,26.2361-1.7029,52.5348.4835,78.8236,1.665,20.0188,4.7423,39.5611,12.25,58.371,4.241,10.6263,10.091,19.3979,21.0177,24.9717,18.454-9.1812,31.9912-22.68,35.81-44.28,1.0426-5.8971,2.1755-11.8032,3.7289-17.581,14.5976-54.2964,38.42-104.0982,72.71-148.7858,4.8329-6.2983,12.2228-12.3056,13.39-19.29,1.2464-7.4557-3.4264-15.9257-5.6133-23.9262-9.5629-34.9831-13.937-70.4432-10.31-106.7177C190.4233,345.124,190.8618,334.5411,191.6309,323.262Zm908.6,700.2633c1.6437-1.7769,2.81-2.9368,3.8638-4.1917,17.8716-21.2884,24.7755-46.89,27.5775-73.6436,1.9714-18.8247,1.7649-37.8689,2.9636-56.7875.5-7.8855-2.6494-13.7392-8.5872-17.9778a53.528,53.528,0,0,0-14.1368-7.1741c-13.8784-4.5741-28.15-8.01-41.8734-12.9819-11.3673-4.1189-22.5334-5.7925-34.16-2.39-13.3641,3.91-26.5917,8.29-39.9746,12.1316-9.8769,2.8356-19.8017,6.469-29.9014,7.2683-8.6291.6832-13.7038,3.376-16.19,11.4425-.68,2.2076-2.0667,4.19-2.83,6.3809-7.9781,22.9012-15.7573,45.8729-23.9348,68.7021-1.8381,5.1316.3745,8.2675,3.3809,11.5463,9.1632,9.994,21.1478,15.7342,32.5576,22.6152,24.8313,14.9748,50.9159,14.46,77.1654,7.2744,10.33-2.8277,20.2121-3.1131,30.4589-3.0206,4.6279.0418,8.4179,1.2986,9.6519,6.6886.4984,2.1774,2.5792,3.96,3.2563,6.1349C1082.6322,1015.5466,1090.3031,1020.1306,1100.2313,1023.5253Zm-157.3736-667.95c-2.42,27.89,1.2119,55.36,6.29,82.437,2.3356,12.4553,9.2349,24.1269,14.5538,35.9336,8.1,17.9809,23.3367,27.2249,41.8564,30.23,8.5523,1.3876,17.7847-.8966,26.6414-2.0387,10.497-1.3536,20.3985-5.7431,31.3733-5.2348,7.0979.3286,12.4713,2.2721,15.3821,8.7714a17.0193,17.0193,0,0,0,10.8942,9.6225c9.0263,2.7436,18.04,3.9709,26.6208-2.31a64.1066,64.1066,0,0,0,15.2512-15.5339c14.2617-20.6722,22.0542-43.15,20.1749-68.5223-.5845-7.8923-3.261-15.0877-9.0365-20.4885a153.8551,153.8551,0,0,0-53.0408-32.9388c-14.0358-5.0735-27.98-10.57-42.3339-14.5454a264.2124,264.2124,0,0,0-40.9848-8.14c-15.1813-1.6957-30.5911-1.2521-45.8793-2.13C954.381,350.3292,948.7505,351.1759,942.8577,355.5755ZM906.0512,849.5778c-11.0716-6.4246-20.76-12.1344-30.5326-17.6964a124.99,124.99,0,0,1-36.0972-30.97c-12.0626-15.0686-23.9272-30.3664-33.0938-47.2691-5.023-9.2621-10.8854-16.4148-20.0628-21.16-5.0195-2.5953-9.824-5.6132-14.8813-8.1271-6.0235-2.9942-16.6234-.9917-20.8189,4.5315-6.4137,8.4437-13.6,16.739-17.8821,26.2562-5.8214,12.9385-9.3414,26.93-13.62,40.5412-7.0445,22.4094-7.1385,45.21-3.291,68.16a51.2691,51.2691,0,0,0,2.52,10.6307c11.952,29.7481,33.7188,47.55,65.11,54.4,10.5879,2.31,18.9323.7713,25.9657-7.4378,2.8-3.2683,5.5888-6.5532,8.5387-9.6836,1.78-1.889,3.677-4.6808,5.8377-5.0139,7.42-1.1438,15.1-2.52,22.5354,2.0283,0,5.743,1.0536,11.6407-.2344,16.9728-2.2147,9.1684,2.8971,13.5335,9.18,17.8043,3.8757,2.6342,7.3366,2.7786,10.4276-1.2478,5.46-7.1124,11.6875-13.7441,16.3443-21.3428,12.1369-19.8036,17.3387-42.3534,23.9567-64.2949C906.68,854.25,906.0512,851.4309,906.0512,849.5778Zm118.3595,328.9739c8.8656-.6448,17.157-1.3934,25.4646-1.8234,20.7675-1.0745,40.7722-6.0752,60.65-11.6794a43.7,43.7,0,0,0,10.0231-4.4037c10.6515-6.22,11.2915-8.4081,6.5693-20.0161-.7522-1.8494-1.6572-3.636-2.4474-5.4707-1.95-4.5251-5.2665-6.3108-10.2672-6.1883-9.99.2447-20.0108.3744-29.9857-.1194-11.6128-.575-23.6785-.39-34.2067-5.8559a163.3681,163.3681,0,0,1-25.5977-17.013c-14.2132-11.2235-31.1724-16.16-47.6839-22.1574-8.3659-3.0387-15.8734-1.1318-21.325,6.2178-3.74,5.0426-7.7606,10.0783-10.3649,15.7137-3.6126,7.8173-5.8676,16.251-8.9744,24.3165-3.2955,8.5556-2.5084,17.0555.4986,25.2889,1.9083,5.2253,5.8363,8.3268,12.0715,8.8878a67.1945,67.1945,0,0,1,18.35,4.1381C985.8172,1175.7051,1005.4156,1176.8245,1024.4107,1178.5517ZM1849.0764,743.083c1.8411-.1837,3.9355-.03,5.783-.6337,17.4452-5.6956,32.053-14.783,37.6556-33.6157a178.7569,178.7569,0,0,0,4.3782-20.3776c2.1571-12.4074,5.1536-12.9736-10.71-23.1309a143.126,143.126,0,0,0-26.5094-13.668c-14.5631-5.4688-29.5774-9.78-44.5344-14.12-2.97-.8621-6.5428.562-9.8365.553-4.1619-.0112-6.0414,2.4334-6.8422,5.9325-2.0758,9.0669-4.7757,18.0849-5.8014,27.2813-3.8715,34.7074-3.6684,34.74,16.9446,54.8286,1.6559,1.6138,3.6172,2.91,5.3292,4.4717C1824.5742,739.3953,1836.4963,741.8638,1849.0764,743.083ZM111.9365,977.5591c-41.25,47.417-39.8991,101.2236-27.1585,156.7851,6.6539,1.5887,11.3653.0473,16.3975-2.4227a46.0289,46.0289,0,0,1,16.0926-4.4066c6.5636-.5531,13.2546.5422,19.8957.7057,2.58.0635,5.6954.3584,7.6632-.8837,5.7684-3.6418,11.0828-8.003,17.1787-12.5308C133.023,1073.659,122.3355,1025.7762,111.9365,977.5591Zm642.0942,206.23c-4.52-8.9951-11.3676-14.3546-21.509-15.5661-5.2524-.6274-10.3571-2.4006-15.5841-3.35-19.4049-3.5249-38.1728-8.9583-55.8711-17.8414-8.7937-4.4137-15.88-2.7724-21.9271,4.83-12.1911,15.3283-12.3109,32.4684-6.77,50.0705.8928,2.8359,4.6807,6.2356,7.5523,6.6865a91.122,91.122,0,0,0,22.74.9627c25.5228-2.4881,50.5373-7.9175,75.4662-13.8751C745.5951,1193.9218,750.6909,1190.324,754.0307,1183.7887Zm152.4121-24.4435c-6.9357-7.9-6.9413-7.8014-15.4236-8.28-26.8915-1.5174-52.572-7.3378-75.8252-21.6384-4.8012-2.9524-9.5-6.1-14.4589-8.7606-6.0262-3.2335-10.6289-2.2874-14.5049,3.1776-2.451,3.4559-4.9313,7.2793-5.9331,11.3029-3.1372,12.6013-4.9817,25.3256-2.0283,38.3977,2.4016,10.63,2.2793,10.9019,13.4467,11.3753a27.7672,27.7672,0,0,1,3.9707.2517c27.6272,5.2269,54.2414.4019,80.2962-8.5514C886.8589,1172.8823,896.307,1166.2944,906.4428,1159.3452Zm618.0393-58.2637c10.7667,3.199,19.999,5.7132,29.0774,8.6964,11.7866,3.8729,23.6569,6.5981,36.2006,5.6051,16.4412-1.3014,31.6618-7.1059,46.88-12.7374,3.6716-1.3587,8.3286-3.1141,8.7339-8.7973-3.8024-.9658-7.9108-1.233-11.2343-2.9873-14.661-7.74-29.375-15.4517-43.5214-24.0733-10.4588-6.3744-20.0112-14.2237-30.0806-21.2541-8.7352-6.0984-17.556-4.6879-23.9778,3.9893a75.2786,75.2786,0,0,0-8.3142,13.5688C1522.6,1075.6145,1517.46,1088.3623,1524.4821,1101.0815ZM455.5974,1202.6227c14.3015,5.7273,27.5381,11.0559,40.7981,16.3259a28.2175,28.2175,0,0,0,18.5576.8675,119.34,119.34,0,0,1,12.6849-2.6246c16.316-2.7011,30.9976-9.6547,45.3329-17.4427,2.4035-1.3056,4.2951-3.554,6.2518-5.2208-12.9339-6.48-25.2878-12.2113-37.1924-18.759-12.781-7.03-25.0708-14.9464-37.7066-22.2482-9.01-5.2065-17.9176-4.2187-26.07,1.9526C462.9733,1167.04,458.8284,1183.988,455.5974,1202.6227ZM580.47,163.8837c-8.9116,5.7172-12.8166,14.7562-18.3485,22.5044-7.9472,11.1306-7.44,22.9274-3.7882,35.2257,1.6226,5.4653,5.0487,9.0914,10.0069,11.7523a45.5878,45.5878,0,0,0,34.746,3.9481c19.3361-5.2534,39.0732-7.6632,59.0466-8.4831a31.76,31.76,0,0,0,4.78-1.0035c-8.7168-17.1794-22.1688-28.62-37.1789-37.7907C614.188,180.5388,597.5408,172.843,580.47,163.8837ZM803.0624,284.1892c-20.2471-17.5954-40.5042-31.9016-64.5713-39.7312-11.0257-3.587-22.4191-6.0948-33.729-8.7351-5.2629-1.2285-9.5165-.4725-11.2641,6.2757a126.9951,126.9951,0,0,1-7.7474,20.372c-5.7179,12.5932-1.6864,21.8115,9.171,29.03.8261.5492,1.49,1.3413,2.3154,1.8925,9.5162,6.3571,19.0381,12.4055,31.4113,7.96,2.3668-.85,5.3105-.4494,7.9364-.1591,8.8681.98,17.0767-1.1193,25.1815-4.5066a155.3751,155.3751,0,0,1,16.0322-5.4745C785.729,288.7759,793.7441,286.726,803.0624,284.1892ZM913.3346,339.222c1.1868-4.744-.3883-7.6282-3.6914-10.0532-19.216-14.1077-40.9348-23.292-63.0216-31.56-9.4062-3.5209-14.3662-.7423-19.225,7.9127-2.2725,4.0479-4.8991,7.8967-7.3583,11.84-5.6691,9.09-6.0733,18.0772.6615,26.8383,6.046,7.8653,14.1514,13.0681,23.2286,16.5144a29.4562,29.4562,0,0,0,12.58,1.6369,95.5171,95.5171,0,0,0,42.9931-14.64C903.9891,344.8985,908.5282,342.1682,913.3346,339.222ZM439.84,574.8285c-2.341,5.0715-4.5147,9.089-6.0822,13.3309-2.6458,7.16-6.0608,14.2995-7.1072,21.7354-2.7773,19.7367,12.229,37.4421,28.441,35.4173a33.397,33.397,0,0,1,9.9549.28c27.6163,5.0153,52.6912-6.4238,78.93-11.97C503.7788,624.19,468.5532,606.2363,439.84,574.8285ZM694.5923,705.6164c-41.5578-2.5071-78.8788-14.0931-111.9195-37.9668-9.374,14.3853-8.8881,36.7055,2.1443,48.4105,4.8229,5.117,11.4332,10.6633,17.9161,11.6887,16.6859,2.64,33.7971,3.2861,50.13-3.2218q19.8513-7.9094,39.6228-16.0189C692.9921,708.3018,693.2534,707.4959,694.5923,705.6164Zm-295.1885-155.25c-25.3228-10.5791-48.8746-18.8223-67.1178-34.4453-4.8668,3.2494-8.44,6.1181-12.4277,8.1895-6.7647,3.5137-13.7255,6.6753-20.73,9.6924-4.4732,1.9266-5.7233,5.1029-4.9935,9.583,1.3524,8.3015,5.1169,14.9117,12.5432,19.3612,13.5834,8.1383,28.1946,6.8921,42.54,3.9332,11.6626-2.4055,22.9735-6.5742,34.372-10.1775C388.229,555.0365,392.6866,552.9976,399.4038,550.3663Zm1271.4891,545.0779c31.7077,17.7425,60.2265,11.6645,88.0741-10.14-6.3952-2.9068-12.0554-5.4266-17.671-8.0423-15.3339-7.1421-30.4527-14.7927-46.0406-21.3266-10.4046-4.3614-16.9324-.6885-21.1362,9.7757C1670.2972,1075.2247,1669.9,1085.07,1670.8929,1095.4442ZM183.8994,1164.2856c-10.6127-3.7158-17.0667.6509-21.3447,9.541a9.9155,9.9155,0,0,1-.5643.82c-5.7239,9.3068-9.2515,18.9006-6.2789,30.2034,1.6733,6.3626,1.6918,13.1453,3.05,19.6137.5414,2.5773,2.1195,5.638,4.1965,7.0756,11.9558,8.2748,32.2027,5.1747,41.7566-5.9817,2.4876-2.9052,2.5238-5.6712.5536-9.04-3.5-5.9833-7.1588-11.99-9.6685-18.41C191.28,1187.0559,187.79,1175.6784,183.8994,1164.2856ZM363.7362,62.049c-.9958-1.8189-2.063-3.4474-2.8232-5.2084-5.2858-12.2447-17.97-18.6351-29.8989-13.4311-17.1533,7.4835-29.39,20.2187-34.893,38.5179a9.37,9.37,0,0,0,1.0823,7.2669c6.3126,8.4957,22.4985,10.84,30.5818,4.1437C339.9879,83.2292,351.7219,72.5543,363.7362,62.049Zm-80.8743,49.9823c-7.59-5.57-8.4177-13.352-8.3462-21.4583.0351-3.987.2262-7.9841.0166-11.9592-.4072-7.7239-7.7617-11.6924-13.98-7.3527a66.4061,66.4061,0,0,0-25.0434,32.706c-3.968,11.172,1.1351,21.5795,11.2,21.8441C259.9966,126.16,273.1753,124.0135,282.8619,112.0313ZM103.242,1231.4921c7.7921,5.2664,15.7285,4.2627,23.897,1.4286,8.534-2.961,10.1961-5.7523,9.2462-14.5641-.923-8.5635-1.3651-17.1825-1.8709-25.7857-.2093-3.5606-.0347-7.1438-.0347-11.0747-3.5083-.4581-6.1069-.7133-8.6736-1.1544-2.9432-.5059-5.8327-1.4124-8.79-1.729-7.3552-.7881-9.4822.34-12.4747,6.9562a50.6478,50.6478,0,0,0-4.3438,28.2372C101.015,1219.7058,102.2067,1225.5536,103.242,1231.4921Zm-28.4777,4.0172c-.3487-12.7034-1.2281-23.9536-.7347-35.1434.2639-5.9852-2.6458-10.2766-5.29-14.4923-4.1214-6.5708-12.8778-7.6943-18.94-2.7406a27.8882,27.8882,0,0,0-7.5841,10.0446c-5.5848,12.7131-2.9437,25.34,1.8435,37.63,2.8874,7.4127,8.5332,10.1625,16.6638,8.4377C65.5475,1238.2218,70.2713,1236.7209,74.7643,1235.5093Zm1789.18-162.5582c-24.404-2.1278-46.7256-4.2593-61.9287-23.2579-14.6517,7.5371-19.6994,20.6142-13.6419,32.2891C1814.2059,1089.4168,1838.939,1089.0612,1863.9439,1072.9511ZM239.6662,148.47c-7.6572-3.3776-14.3379-5.494-20.1035-9.0811-6.9717-4.3374-4.4909-13.0394-6.4522-20.5316-10.5265,6.68-17.6193,14.8713-21.3968,25.3706-4.0223,11.18,2.7722,18.9212,14.1868,16.523a145.8535,145.8535,0,0,0,19.0667-5.7444C229.8062,153.2717,234.3969,150.8447,239.6662,148.47ZM186.2854,264.9581c-6.7736,0-13.0373.0848-19.2981-.0166-15.835-.2565-16.06-.16-21.4506,14.3792a56.2044,56.2044,0,0,0-1.4656,5.4839c8.6576,8.3226,8.7161,8.7322,14.6672,7.8831,5.86-.8361,11.8873-1.896,17.3-4.1541C184.68,284.9289,187.4511,277.9891,186.2854,264.9581ZM170.2034,169.46l-2.4876,1.0853c-1.41,4.2949-3.0493,8.5306-4.1715,12.8994-1.49,5.8005-.2751,10.4725,6.2335,12.5135,5.3234,1.6693,10.4709,3.998,15.8736,5.2975,13.7533,3.3084,24.636-4.297,27.5127-19.13C197.7276,182.1244,181.3211,185.6282,170.2034,169.46Zm-18.9515,46.48c-4.6756,8.5735.2167,16.2585,4.9787,21.8327,4.6018,5.3868,12.0943,9.34,20.5947,5.6214,8.2443-3.607,14.3587-8.6343,15.2028-18.329Z"/><path d="M1119.9446,1476.1569v30.0308H959.4531c-5.0826-9.39-3.2146-19.2228-1.2152-28.8955.834-4.0344,4.8265-3.9512,8.2035-3.9838,19.9832-.1932,39.9692-.6675,59.9492-.4894,24.6279.22,49.2532.8971,73.8742,1.5755C1106.5221,1474.5667,1112.7587,1475.4911,1119.9446,1476.1569Z"/><path class="e8a8e915-a2f8-4fa6-bfc0-b99f9c7d1cdd" d="M291.479,485.975c-25.61-6.9293-37.649-17.1592-41.5129-43.332-3.1037-21.0239-4.0823-42.3633-5.94-63.5682-.61-6.9636-1.0448-13.9429-1.5182-20.9179-1.2747-18.7827,1.679-37.03,5.784-55.34,8.2152-36.6433,20.9624-71.6482,39.0278-104.3678,20.3861-36.9226,45.3135-70.8842,79.6668-96.1224,17.59-12.9229,37.5737-22.5781,56.4033-33.8314,4.4747-2.6742,8.9657-2.5255,13.4142-.6762,26.4553,10.9983,52.9049,22.0369,73.88,42.5665,8.532,8.351,17.6764,16.17,25.4194,25.1939,3.8849,4.5278,5.7373,11.0617,7.6119,16.9728,1.6159,5.096-1.8458,8.73-5.6007,11.8082-8.8492,7.2541-17.53,14.7218-26.5488,21.7578-8.9153,6.9554-17.7741,14.106-27.3351,20.0886-28.8071,18.0254-53.0943,40.8453-75.1519,66.573-21.0851,24.5936-41.5039,49.5885-56.5086,78.3922-12.6166,24.2194-22.1662,49.7463-30.7386,75.7316-5.3839,16.32-13.2163,31.8772-20.6206,47.458C299.0462,478.9159,294.579,482.3755,291.479,485.975Z"/><path class="e8a8e915-a2f8-4fa6-bfc0-b99f9c7d1cdd" d="M1314.5833,1050.0961h17.3119c1.3668-5.1,2.7465-10.1218,4.0527-15.1626,1.1627-4.4849,1.4442-9.3967,3.4882-13.4226,14.6323-28.8177,33.0731-54.6126,60.1306-73.2769,1.6427-1.133,3.2743-2.297,4.9986-3.2956,8.9885-5.2054,17.1145-3.3812,21.8221,5.7521a144.3488,144.3488,0,0,1,8.5386,21.2111c8.9036,27.1725,18.2923,54.2217,26.0125,81.7342,5.7311,20.4256,10.7653,41.2319,9.7813,62.8751-.195,4.2909-.8372,7.4462-4.7847,10.0243-14.1944,9.27-27.8122,19.5617-44.2956,24.6332-7.5822,2.333-15.2252,4.8519-23.03,5.9981-16.1213,2.3678-32.353,4.0316-48.5685,5.7-41.2847,4.2472-82.4468,3.3754-123.2756-4.3657-10.3734-1.9667-20.4032-5.7436-30.5928-8.6825-1.5893-.4584-3.3086-1.5033-4.7634-1.2214-9.1456,1.7711-12.6738-4.7325-17.2731-10.5949-9.6516-12.3027-12.6936-26.734-15.623-41.5519-7.5132-38.0024,3.217-71.7608,23.0874-103.4827A90.3787,90.3787,0,0,1,1194.5744,976.8c1.8877-1.8655,6.4693-2.7132,9.0934-1.8372,13.18,4.4,27.3276,5.778,39.5077,13.4108,16.3262,10.231,33.0811,19.7761,49.5132,29.8422a24.5736,24.5736,0,0,1,7.9571,7.3127C1305.5481,1033.33,1309.7945,1041.5438,1314.5833,1050.0961Z"/><path class="e8a8e915-a2f8-4fa6-bfc0-b99f9c7d1cdd" d="M322.1229,1225.53c-11.3016,0-22.6049.0967-33.9037-.0827a15.1875,15.1875,0,0,1-6.599-1.8088c-10.427-5.5254-21.23-10.4715-30.21-18.3674-1.4717-1.2941-3.1565-2.71-3.8828-4.4317-8.3635-19.8293-17.738-39.3448-24.39-59.7438-4.4732-13.7169-5.26-28.6785-7.2773-43.1416-1.8816-13.4915-3.2576-27.0549-4.7507-40.5983a60.8141,60.8141,0,0,1-.5458-10.9526c2.2764-31.4991,3.4432-63.0236,9.5053-94.25,8.0091-41.2556,20.6387-81.2017,31.769-121.58,1.7514-6.3533,4.7429-12.4256,7.677-18.3732,2.4571-4.98,4.7757-11.4923,11.2861-11.4189,7.954.09,16.1632,1.9019,21.0972,9.259a44.78,44.78,0,0,1,6.4443,13.3947c2.9631,11.5789,6.2153,23.2584,7.3624,35.0905,2.3118,23.8437,3.7871,47.7965,4.7213,71.7388a452.37,452.37,0,0,0,16.23,105.3723c7.1585,25.4,11.6848,51.2334,17.0139,76.9647,3.7073,17.9,7.6209,35.8079,12.6523,53.3656,3.3712,11.7638,8.5507,23.0583,13.5411,34.2874,2.3632,5.3174,2.1247,9.1854-1.91,13.4535a32.7388,32.7388,0,0,1-15.2947,9.6554C342.4623,1226.4209,332.3966,1226.6062,322.1229,1225.53Z"/><path class="e8a8e915-a2f8-4fa6-bfc0-b99f9c7d1cdd" d="M1502.79,537.4265c10.8878-6.88,22.41-5.2609,33.5071-3.9452,17.8365,2.1149,35.5509,5.2666,53.3034,8.0665a37.0253,37.0253,0,0,1,8.72,2.1325c22.0245,9.3806,45.678,14.398,67.12,25.3988,9.1588,4.6989,18.8969,8.2582,28.3154,12.4617,21.3568,9.5314,40.92,21.9861,60.0666,36.4582-2.1361,11.6322-4.21,23.02-6.3224,34.4017-1.76,9.4849-3.42,18.9916-5.38,28.4356-4.8286,23.2685-24.9553,41.501-48.404,43.912a20.541,20.541,0,0,1-6.94-.3465,177.7551,177.7551,0,0,1-43.6007-16.93c-3.1982-1.7779-4.7894-4.0827-4.8289-7.9419-.0532-5.2044-.8048-10.4019-1.2706-15.7635h-18.8852c0,4.8385-.1233,9.083.02,13.3186.9424,27.7787-12.8179,47.5881-34.76,62.3558-9.1522,6.16-19.3457,7.183-30.3566,2.5792a74.9188,74.9188,0,0,1-20.2392-12.3012c-11.8926-10.1617-14.276-24.2674-16.39-38.5-1.6117-10.85-3.26-21.704-4.4365-32.6054-1.3915-12.9-2.3395-25.8493-3.3962-38.784-1.9792-24.2224-4.1111-48.4353-5.7362-72.682C1502.252,557.538,1502.79,547.85,1502.79,537.4265Z"/><path class="e8a8e915-a2f8-4fa6-bfc0-b99f9c7d1cdd" d="M1202.0765,448.9171c26.4159-15.94,53.5092-15.6708,80.7857-4.869,19.457,7.7051,38.45,16.4888,58.6634,22.29,6.57,1.8853,12.6788,5.6835,18.6916,9.1408,12.3891,7.1236,24.4838,14.7589,36.8672,21.8925a72.7327,72.7327,0,0,0,30.167,9.7449c3.3787.2961,6.642.62,7.8853,4.711a5.0528,5.0528,0,0,0,2.56,2.9181c10.6124,4.1484,12.6245,14.1627,14.5648,23.21,4.6717,21.7832,9.2682,43.5354,15.8618,64.8568,1.3883,4.4894.5293,9.7337.3609,14.6183-.0789,2.2856-1.3778,4.5314-1.4432,6.8147-.4307,15.0195-10.4965,23.8377-20.844,32.3558a12.434,12.434,0,0,1-7.2934,2.37c-15.9434.1721-30.8925-2.67-43.864-13.1716a275.8133,275.8133,0,0,0-28.529-20.02c-4.2986-2.6578-9.8859-4.616-14.8571-4.5507-17.2689.2266-34.6146.6562-51.7638,2.535-25.691,2.8145-47.1513-4.5356-64.6466-23.4431-4.5121-4.8764-9.1536-9.7469-12.8668-15.2106a40.7372,40.7372,0,0,1-5.8771-13.5918c-5.2213-23.0085-9.7408-46.052-10.5734-69.8576-.531-15.1826-4.4287-30.24-3.8608-45.6283C1202.1493,453.7411,1202.0765,451.445,1202.0765,448.9171Z"/><path class="e8a8e915-a2f8-4fa6-bfc0-b99f9c7d1cdd" d="M191.6309,323.262c-.7691,11.2791-1.2076,21.862-2.26,32.3834-3.6272,36.2745.7469,71.7346,10.31,106.7177,2.1869,8.0005,6.86,16.4705,5.6133,23.9262-1.1674,6.9844-8.5573,12.9917-13.39,19.29-34.29,44.6876-58.1122,94.4894-72.71,148.7858-1.5534,5.7778-2.6863,11.6839-3.7289,17.581-3.8189,21.6008-17.3561,35.0993-35.81,44.28-10.9267-5.5738-16.7767-14.3454-21.0177-24.9717-7.5073-18.81-10.5846-38.3522-12.25-58.371-2.1864-26.2888-2.9772-52.5875-.4835-78.8236,3.4511-36.31,11.0225-71.7471,26.4991-105.0434,8.8276-18.9913,17.3648-38.2222,27.7765-56.3433,10.4184-18.1327,22.6188-35.2956,34.789-52.3476,7.5763-10.6154,19.7823-15.4087,31.1279-20.9723a6.5855,6.5855,0,0,1,3.8542-.6583C177.039,320.0726,184.088,321.65,191.6309,323.262Z"/><path class="e8a8e915-a2f8-4fa6-bfc0-b99f9c7d1cdd" d="M1100.2313,1023.5253c-9.9282-3.3947-17.5991-7.9787-20.7127-17.9827-.6771-2.1751-2.7579-3.9575-3.2563-6.1349-1.234-5.39-5.024-6.6468-9.6519-6.6886-10.2468-.0925-20.1285.1929-30.4589,3.0206-26.2495,7.1853-52.3341,7.7-77.1654-7.2744-11.41-6.881-23.3944-12.6212-32.5576-22.6152-3.0064-3.2788-5.219-6.4147-3.3809-11.5463,8.1775-22.8292,15.9567-45.8009,23.9348-68.7021.7631-2.19,2.1495-4.1733,2.83-6.3809,2.4863-8.0665,7.561-10.7593,16.19-11.4425,10.1-.7993,20.0245-4.4327,29.9014-7.2683,13.3829-3.8419,26.6105-8.2215,39.9746-12.1316,11.6271-3.4022,22.7932-1.7286,34.16,2.39,13.7229,4.972,27.995,8.4078,41.8734,12.9819a53.528,53.528,0,0,1,14.1368,7.1741c5.9378,4.2386,9.0868,10.0923,8.5872,17.9778-1.1987,18.9186-.9922,37.9628-2.9636,56.7875-2.802,26.7538-9.7059,52.3552-27.5775,73.6436C1103.0416,1020.5885,1101.875,1021.7484,1100.2313,1023.5253Z"/><path class="e8a8e915-a2f8-4fa6-bfc0-b99f9c7d1cdd" d="M942.8577,355.5755c5.8928-4.4,11.5233-5.2463,17.7624-4.8882,15.2882.8777,30.698.4341,45.8793,2.13a264.2124,264.2124,0,0,1,40.9848,8.14c14.354,3.9753,28.2981,9.4719,42.3339,14.5454a153.8551,153.8551,0,0,1,53.0408,32.9388c5.7755,5.4008,8.452,12.5962,9.0365,20.4885,1.8793,25.3719-5.9132,47.85-20.1749,68.5223a64.1066,64.1066,0,0,1-15.2512,15.5339c-8.5812,6.2812-17.5945,5.0539-26.6208,2.31a17.0193,17.0193,0,0,1-10.8942-9.6225c-2.9108-6.4993-8.2842-8.4428-15.3821-8.7714-10.9748-.5083-20.8763,3.8812-31.3733,5.2348-8.8567,1.1421-18.0891,3.4263-26.6414,2.0387-18.52-3.0049-33.7562-12.2489-41.8564-30.23-5.3189-11.8067-12.2182-23.4783-14.5538-35.9336C944.07,410.9353,940.4377,383.465,942.8577,355.5755Z"/><path class="e8a8e915-a2f8-4fa6-bfc0-b99f9c7d1cdd" d="M906.0512,849.5778c0,1.8531.6289,4.6721-.098,7.0824-6.618,21.9415-11.82,44.4913-23.9567,64.2949-4.6568,7.5987-10.8846,14.23-16.3443,21.3428-3.091,4.0264-6.5519,3.882-10.4276,1.2478-6.2826-4.2708-11.3944-8.6359-9.18-17.8043,1.288-5.3321.2344-11.23.2344-16.9728-7.4352-4.5484-15.1156-3.1721-22.5354-2.0283-2.1607.3331-4.0577,3.1249-5.8377,5.0139-2.95,3.13-5.7385,6.4153-8.5387,9.6836-7.0334,8.2091-15.3778,9.7482-25.9657,7.4378-31.3914-6.85-53.1582-24.6521-65.11-54.4a51.2691,51.2691,0,0,1-2.52-10.6307c-3.8475-22.95-3.7535-45.7509,3.291-68.16,4.2788-13.6115,7.7988-27.6027,13.62-40.5412,4.2821-9.5172,11.4684-17.8125,17.8821-26.2562,4.1955-5.5232,14.7954-7.5257,20.8189-4.5315,5.0573,2.5139,9.8618,5.5318,14.8813,8.1271,9.1774,4.7452,15.04,11.8979,20.0628,21.16,9.1666,16.9027,21.0312,32.2005,33.0938,47.2691a124.99,124.99,0,0,0,36.0972,30.97C885.2912,837.4434,894.98,843.1532,906.0512,849.5778Z"/><path class="e8a8e915-a2f8-4fa6-bfc0-b99f9c7d1cdd" d="M1024.4107,1178.5517c-18.9951-1.7272-38.5935-2.8466-57.2254-10.1645a67.1945,67.1945,0,0,0-18.35-4.1381c-6.2352-.561-10.1632-3.6625-12.0715-8.8878-3.007-8.2334-3.7941-16.7333-.4986-25.2889,3.1068-8.0655,5.3618-16.4992,8.9744-24.3165,2.6043-5.6354,6.6244-10.6711,10.3649-15.7137,5.4516-7.35,12.9591-9.2565,21.325-6.2178,16.5115,5.9977,33.4707,10.9339,47.6839,22.1574a163.3681,163.3681,0,0,0,25.5977,17.013c10.5282,5.4661,22.5939,5.2809,34.2067,5.8559,9.9749.4938,19.9952.3641,29.9857.1194,5.0007-.1225,8.3176,1.6632,10.2672,6.1883.79,1.8347,1.6952,3.6213,2.4474,5.4707,4.7222,11.608,4.0822,13.7958-6.5693,20.0161a43.7,43.7,0,0,1-10.0231,4.4037c-19.8779,5.6042-39.8826,10.6049-60.65,11.6794C1041.5677,1177.1583,1033.2763,1177.9069,1024.4107,1178.5517Z"/><path class="e8a8e915-a2f8-4fa6-bfc0-b99f9c7d1cdd" d="M1849.0764,743.083c-12.58-1.2192-24.5022-3.6877-34.1432-12.4787-1.712-1.5613-3.6733-2.8579-5.3292-4.4717-20.613-20.0882-20.8161-20.1212-16.9446-54.8286,1.0257-9.1964,3.7256-18.2144,5.8014-27.2813.8008-3.4991,2.68-5.9437,6.8422-5.9325,3.2937.009,6.8664-1.4151,9.8365-.553,14.957,4.34,29.9713,8.6511,44.5344,14.12a143.126,143.126,0,0,1,26.5094,13.668c15.8635,10.1573,12.867,10.7235,10.71,23.1309a178.7569,178.7569,0,0,1-4.3782,20.3776c-5.6026,18.8327-20.21,27.92-37.6556,33.6157C1853.0119,743.0526,1850.9175,742.8993,1849.0764,743.083Z"/><path class="e8a8e915-a2f8-4fa6-bfc0-b99f9c7d1cdd" d="M111.9365,977.5591c10.399,48.2171,21.0865,96.1,50.0692,137.247-6.0959,4.5278-11.41,8.889-17.1787,12.5308-1.9678,1.2421-5.0836.9472-7.6632.8837-6.6411-.1635-13.3321-1.2588-19.8957-.7057a46.0289,46.0289,0,0,0-16.0926,4.4066c-5.0322,2.47-9.7436,4.0114-16.3975,2.4227C72.0374,1078.7827,70.686,1024.9761,111.9365,977.5591Z"/><path class="e8a8e915-a2f8-4fa6-bfc0-b99f9c7d1cdd" d="M754.0307,1183.7887c-3.34,6.5353-8.4356,10.1331-15.9023,11.9174-24.9289,5.9576-49.9434,11.387-75.4662,13.8751a91.122,91.122,0,0,1-22.74-.9627c-2.8716-.4509-6.6595-3.8506-7.5523-6.6865-5.541-17.6021-5.4212-34.7422,6.77-50.0705,6.0468-7.6028,13.1334-9.2441,21.9271-4.83,17.6983,8.8831,36.4662,14.3165,55.8711,17.8414,5.227.9495,10.3317,2.7227,15.5841,3.35C742.6631,1169.4341,749.51,1174.7936,754.0307,1183.7887Z"/><path class="e8a8e915-a2f8-4fa6-bfc0-b99f9c7d1cdd" d="M906.4428,1159.3452c-10.1358,6.9492-19.5839,13.5371-30.46,17.2746-26.0548,8.9533-52.669,13.7783-80.2962,8.5514a27.7672,27.7672,0,0,0-3.9707-.2517c-11.1674-.4734-11.0451-.7456-13.4467-11.3753-2.9534-13.0721-1.1089-25.7964,2.0283-38.3977,1.0018-4.0236,3.4821-7.847,5.9331-11.3029,3.876-5.465,8.4787-6.4111,14.5049-3.1776,4.9588,2.6609,9.6577,5.8082,14.4589,8.7606,23.2532,14.3006,48.9337,20.121,75.8252,21.6384C899.5015,1151.5438,899.5071,1151.4447,906.4428,1159.3452Z"/><path class="e8a8e915-a2f8-4fa6-bfc0-b99f9c7d1cdd" d="M1524.4821,1101.0815c-7.0222-12.7192-1.882-25.467,3.7641-37.99a75.2786,75.2786,0,0,1,8.3142-13.5688c6.4218-8.6772,15.2426-10.0877,23.9778-3.9893,10.0694,7.03,19.6218,14.88,30.0806,21.2541,14.1464,8.6216,28.86,16.333,43.5214,24.0733,3.3235,1.7543,7.4319,2.0215,11.2343,2.9873-.4053,5.6832-5.0623,7.4386-8.7339,8.7973-15.2187,5.6315-30.4393,11.436-46.88,12.7374-12.5437.993-24.414-1.7322-36.2006-5.6051C1544.4811,1106.7947,1535.2488,1104.2805,1524.4821,1101.0815Z"/><path class="e8a8e915-a2f8-4fa6-bfc0-b99f9c7d1cdd" d="M455.5974,1202.6227c3.231-18.6347,7.3759-35.5823,22.6561-47.1493,8.1526-6.1713,17.06-7.1591,26.07-1.9526,12.6358,7.3018,24.9256,15.2185,37.7066,22.2482,11.9046,6.5477,24.2585,12.2788,37.1924,18.759-1.9567,1.6668-3.8483,3.9152-6.2518,5.2208-14.3353,7.788-29.0169,14.7416-45.3329,17.4427a119.34,119.34,0,0,0-12.6849,2.6246,28.2175,28.2175,0,0,1-18.5576-.8675C483.1355,1213.6786,469.8989,1208.35,455.5974,1202.6227Z"/><path class="e8a8e915-a2f8-4fa6-bfc0-b99f9c7d1cdd" d="M580.47,163.8837c17.0711,8.9593,33.7183,16.6551,49.2643,26.1532,15.01,9.1706,28.4621,20.6113,37.1789,37.7907a31.76,31.76,0,0,1-4.78,1.0035c-19.9734.82-39.7105,3.23-59.0466,8.4831a45.5878,45.5878,0,0,1-34.746-3.9481c-4.9582-2.6609-8.3843-6.287-10.0069-11.7523-3.6515-12.2983-4.159-24.0951,3.7882-35.2257C567.6531,178.64,571.5581,169.6009,580.47,163.8837Z"/><path class="e8a8e915-a2f8-4fa6-bfc0-b99f9c7d1cdd" d="M803.0624,284.1892c-9.3183,2.5368-17.3334,4.5867-25.264,6.9235a155.3751,155.3751,0,0,0-16.0322,5.4745c-8.1048,3.3873-16.3134,5.487-25.1815,4.5066-2.6259-.29-5.57-.6912-7.9364.1591-12.3732,4.4454-21.8951-1.603-31.4113-7.96-.8251-.5512-1.4893-1.3433-2.3154-1.8925-10.8574-7.2182-14.8889-16.4365-9.171-29.03a126.9951,126.9951,0,0,0,7.7474-20.372c1.7476-6.7482,6.0012-7.5042,11.2641-6.2757,11.31,2.64,22.7033,5.1481,33.729,8.7351C762.5582,252.2876,782.8153,266.5938,803.0624,284.1892Z"/><path class="e8a8e915-a2f8-4fa6-bfc0-b99f9c7d1cdd" d="M913.3346,339.222c-4.8064,2.9462-9.3455,5.6765-13.833,8.4892a95.5171,95.5171,0,0,1-42.9931,14.64,29.4562,29.4562,0,0,1-12.58-1.6369c-9.0772-3.4463-17.1826-8.6491-23.2286-16.5144-6.7348-8.7611-6.3306-17.7481-.6615-26.8383,2.4592-3.9432,5.0858-7.792,7.3583-11.84,4.8588-8.655,9.8188-11.4336,19.225-7.9127,22.0868,8.2676,43.8056,17.4519,63.0216,31.56C912.9463,331.5938,914.5214,334.478,913.3346,339.222Z"/><path class="e8a8e915-a2f8-4fa6-bfc0-b99f9c7d1cdd" d="M439.84,574.8285c28.7132,31.4078,63.9388,49.3612,104.1368,58.7937-26.2391,5.5464-51.314,16.9855-78.93,11.97a33.397,33.397,0,0,0-9.9549-.28c-16.212,2.0248-31.2183-15.6806-28.441-35.4173,1.0464-7.4359,4.4614-14.5755,7.1072-21.7354C435.3253,583.9175,437.499,579.9,439.84,574.8285Z"/><path class="e8a8e915-a2f8-4fa6-bfc0-b99f9c7d1cdd" d="M694.5923,705.6164c-1.3389,1.88-1.6,2.6854-2.1059,2.8917Q672.7,716.58,652.8636,724.527c-16.3333,6.5079-33.4445,5.8618-50.13,3.2218-6.4829-1.0254-13.0932-6.5717-17.9161-11.6887-11.0324-11.705-11.5183-34.0252-2.1443-48.4105C615.7135,691.5233,653.0345,703.1093,694.5923,705.6164Z"/><path class="e8a8e915-a2f8-4fa6-bfc0-b99f9c7d1cdd" d="M399.4038,550.3663c-6.7172,2.6313-11.1748,4.67-15.8134,6.1365-11.3985,3.6033-22.7094,7.772-34.372,10.1775-14.3456,2.9589-28.9568,4.2051-42.54-3.9332-7.4263-4.45-11.1908-11.06-12.5432-19.3612-.73-4.48.52-7.6564,4.9935-9.583,7.0043-3.0171,13.9651-6.1787,20.73-9.6924,3.9876-2.0714,7.5609-4.94,12.4277-8.1895C350.5292,531.544,374.081,539.7872,399.4038,550.3663Z"/><path class="e8a8e915-a2f8-4fa6-bfc0-b99f9c7d1cdd" d="M1670.8929,1095.4442c-.9927-10.3741-.5957-20.2195,3.2263-29.7334,4.2038-10.4642,10.7316-14.1371,21.1362-9.7757,15.5879,6.5339,30.7067,14.1845,46.0406,21.3266,5.6156,2.6157,11.2758,5.1355,17.671,8.0423C1731.1194,1107.1087,1702.6006,1113.1867,1670.8929,1095.4442Z"/><path class="e8a8e915-a2f8-4fa6-bfc0-b99f9c7d1cdd" d="M183.8994,1164.2856c3.89,11.3928,7.38,22.77,11.7008,33.823,2.51,6.42,6.1689,12.4265,9.6685,18.41,1.97,3.3683,1.934,6.1343-.5536,9.04-9.5539,11.1564-29.8008,14.2565-41.7566,5.9817-2.077-1.4376-3.6551-4.4983-4.1965-7.0756-1.3587-6.4684-1.3772-13.2511-3.05-19.6137-2.9726-11.3028.555-20.8966,6.2789-30.2034a9.9155,9.9155,0,0,0,.5643-.82C166.8327,1164.9365,173.2867,1160.57,183.8994,1164.2856Z"/><path class="e8a8e915-a2f8-4fa6-bfc0-b99f9c7d1cdd" d="M363.7362,62.049c-12.0143,10.5053-23.7483,21.18-35.951,31.289-8.0833,6.696-24.2692,4.352-30.5818-4.1437a9.37,9.37,0,0,1-1.0823-7.2669c5.5027-18.2992,17.74-31.0344,34.893-38.5179,11.9285-5.204,24.6131,1.1864,29.8989,13.4311C361.6732,58.6016,362.74,60.23,363.7362,62.049Z"/><path class="e8a8e915-a2f8-4fa6-bfc0-b99f9c7d1cdd" d="M282.8619,112.0313c-9.6866,11.9822-22.8653,14.1291-36.1522,13.78-10.0653-.2646-15.1684-10.6721-11.2-21.8441a66.4061,66.4061,0,0,1,25.0434-32.706c6.2179-4.34,13.5724-.3712,13.98,7.3527.21,3.9751.0185,7.9722-.0166,11.9592C274.4442,98.6793,275.2723,106.4617,282.8619,112.0313Z"/><path class="e8a8e915-a2f8-4fa6-bfc0-b99f9c7d1cdd" d="M103.242,1231.4921c-1.0353-5.9385-2.227-11.7863-3.0447-17.6859a50.6478,50.6478,0,0,1,4.3438-28.2372c2.9925-6.6162,5.12-7.7443,12.4747-6.9562,2.9575.3166,5.847,1.2231,8.79,1.729,2.5667.4411,5.1653.6963,8.6736,1.1544,0,3.9309-.1746,7.5141.0347,11.0747.5058,8.6032.9479,17.2222,1.8709,25.7857.95,8.8118-.7122,11.6031-9.2462,14.5641C118.9705,1235.7548,111.0341,1236.7585,103.242,1231.4921Z"/><path class="e8a8e915-a2f8-4fa6-bfc0-b99f9c7d1cdd" d="M74.7643,1235.5093c-4.493,1.2116-9.2168,2.7125-14.0418,3.736-8.1306,1.7248-13.7764-1.025-16.6638-8.4377-4.7872-12.29-7.4283-24.9169-1.8435-37.63a27.8882,27.8882,0,0,1,7.5841-10.0446c6.0625-4.9537,14.8189-3.83,18.94,2.7406,2.6442,4.2157,5.5539,8.5071,5.29,14.4923C73.5362,1211.5557,74.4156,1222.8059,74.7643,1235.5093Z"/><path class="e8a8e915-a2f8-4fa6-bfc0-b99f9c7d1cdd" d="M1863.9439,1072.9511c-25.0049,16.11-49.738,16.4657-75.5706,9.0312-6.0575-11.6749-1.01-24.752,13.6419-32.2891C1817.2183,1068.6918,1839.54,1070.8233,1863.9439,1072.9511Z"/><path class="e8a8e915-a2f8-4fa6-bfc0-b99f9c7d1cdd" d="M239.6662,148.47c-5.2693,2.3751-9.86,4.8021-14.699,6.5365a145.8535,145.8535,0,0,1-19.0667,5.7444c-11.4146,2.3982-18.2091-5.3431-14.1868-16.523,3.7775-10.4993,10.87-18.69,21.3968-25.3706,1.9613,7.4922-.5195,16.1942,6.4522,20.5316C225.3283,142.9756,232.009,145.092,239.6662,148.47Z"/><path class="e8a8e915-a2f8-4fa6-bfc0-b99f9c7d1cdd" d="M186.2854,264.9581c1.1657,13.031-1.6055,19.9708-10.2467,23.5755-5.4131,2.2581-11.44,3.318-17.3,4.1541-5.9511.8491-6.01.44-14.6672-7.8831a56.2044,56.2044,0,0,1,1.4656-5.4839c5.3906-14.539,5.6156-14.6357,21.4506-14.3792C173.2481,265.0429,179.5118,264.9581,186.2854,264.9581Z"/><path class="e8a8e915-a2f8-4fa6-bfc0-b99f9c7d1cdd" d="M170.2034,169.46c11.1177,16.1686,27.5242,12.6648,42.9607,12.6662-2.8767,14.8325-13.7594,22.4379-27.5127,19.13-5.4027-1.2995-10.55-3.6282-15.8736-5.2975-6.5086-2.041-7.7235-6.713-6.2335-12.5135,1.1222-4.3688,2.762-8.6045,4.1715-12.8994Z"/><path class="e8a8e915-a2f8-4fa6-bfc0-b99f9c7d1cdd" d="M151.2519,215.94l40.7762,9.1251c-.8441,9.6947-6.9585,14.722-15.2028,18.329-8.5,3.7189-15.9929-.2346-20.5947-5.6214C151.4686,232.1985,146.5763,224.5135,151.2519,215.94Z"/></svg>